<svg width="266" height="196" xmlns="http://www.w3.org/2000/svg" xmlns:xlink="http://www.w3.org/1999/xlink">
 <defs>
  <filter id="f" filterUnits="objectBoundingBox" height="527.4%" width="491.7%" y="-152.6%" x="-195.8%">
   <feGaussianBlur result="shadowBlurOuter1" in="shadowOffsetOuter1" stdDeviation="25"/>
  </filter>
  <path d="m0,13.878l0,26.935l20.984,12.017l23.694,-14.013l0,-26.934" id="g"/>
  <linearGradient id="a" y2="55.524%" x2="40.788%" y1="36.858%" x1="61.181%">
   <stop offset="0%" stop-color="#78B46A"/>
   <stop offset="3%" stop-color="#7F3500"/>
   <stop offset="100%" stop-color="#FFF"/>
  </linearGradient>
  <linearGradient id="b" y2="62.428%" x2="29.852%" y1="28.582%" x1="82.186%">
   <stop offset="0%" stop-color="#78B46A"/>
   <stop offset="3%" stop-color="#7F3500"/>
   <stop offset="100%" stop-color="#FFF"/>
  </linearGradient>
  <linearGradient id="c" y2="66.572%" x2="21.557%" y1="21.945%" x1="80.66%">
   <stop offset="0%" stop-color="#78B46A"/>
   <stop offset="3%" stop-color="#7F3500"/>
   <stop offset="100%" stop-color="#FFF"/>
  </linearGradient>
  <linearGradient id="d" y2="55.262%" x2="67.462%" y1="60.558%" x1="81.016%">
   <stop offset="0%" stop-opacity="0" stop-color="#FFF"/>
   <stop offset="99%" stop-color="#DC841E"/>
  </linearGradient>
  <linearGradient id="e" y2="62.288%" x2="29.857%" y1="27.602%" x1="82.183%">
   <stop offset="0%" stop-color="#78B46A"/>
   <stop offset="3%" stop-color="#7F3500"/>
   <stop offset="100%" stop-color="#FFF"/>
  </linearGradient>
 </defs>
 <g>
  <title>Layer 1</title>
  <g id="svg_1" fill-rule="evenodd" fill="none">
   <g id="svg_2" fill-rule="nonzero">
    <path id="svg_3" fill="#5B36A0" d="m129.25263,193.38903l-123.65613,-70.78543c-3.93662,-2.14389 -7.31167,-5.65732 -3.47481,-7.96195l124.09553,-69.27906c1.8607,-1.11865 4.68651,-1.85174 6.58308,-0.78197l129.78525,72.97277c3.93662,2.2134 4.64279,8.38117 0.72074,10.61521l-117.75793,65.10965a16.44369,15.93259 0 0 1 -16.29573,0.11078z"/>
    <path id="svg_4" fill="#6862E6" d="m129.25263,190.12214l-123.65613,-70.7876c-3.93662,-2.14498 -7.31167,-5.6584 -3.47481,-7.96304l124.09553,-69.27797c1.8607,-1.11756 4.68651,-1.85066 6.58308,-0.78197l129.78525,72.97277c3.93662,2.21449 4.64279,8.38117 0.72074,10.61629l-117.75793,65.10856a16.44369,15.93259 0 0 1 -16.29573,0.11186l0,0.00109z"/>
    <path id="svg_5" opacity="0.25" fill="url(#a)" d="m139.44839,96.72699l-24.39989,13.48677s37.58735,22.21765 45.2734,25.34661l14.0528,-19.55679"/>
    <path id="svg_6" opacity="0.25" fill="url(#b)" d="m131.01918,161.43045l-24.40661,-13.45961l-24.40661,13.48677s12.71108,7.51558 24.8617,14.41644c7.71408,-5.28697 15.436,-10.63041 23.95152,-14.44468l0,0.00109z"/>
    <path id="svg_7" opacity="0.46" fill="url(#c)" d="m78.43523,78.316l-15.48084,8.55603s1.31146,7.84357 8.99864,10.97252l20.26823,-12.5723"/>
    <ellipse id="svg_8" ry="6.36978" rx="9.33715" cy="80.50225" cx="86.01255" fill="#68E1FD"/>
    <ellipse id="svg_9" ry="2.77273" rx="6.99445" cy="76.74446" cx="86.00583" fill="#974C26"/>
    <path id="svg_10" fill="#999A1C" d="m85.75362,72.12108c0,-1.25006 -0.04372,-2.50121 -0.1446,-3.75127c-0.02914,-0.32582 -0.06053,-0.64947 -0.09416,-0.97094l-0.07174,-0.63535c0,-0.18789 -0.10088,-0.69834 -0.10088,-0.64947c-0.04372,-0.25631 -0.08967,-0.51045 -0.13675,-0.76025a30.80475,29.84726 0 0 0 -4.98915,-11.82509a17.83698,17.28257 0 0 0 -1.39217,6.9215c0,0.69834 0.05717,1.39668 0.11545,2.05266l0,0.41271a28.19415,27.31782 0 0 0 1.29801,4.75697a23.54688,22.81499 0 0 0 1.5065,3.26797a46.32369,44.88384 0 0 0 2.06919,3.45695c0.57727,0.87971 1.12539,1.66168 1.68136,2.40998c0.17262,-1.55742 0.25108,-3.12244 0.25781,-4.68637l0.00112,0zm-3.66985,-14.06021a1.16014,1.12408 0 0 0 0,-0.48873c0.1771,0.17703 0.35309,0.3584 0.52683,0.54521a1.60065,1.5509 0 0 0 -0.53467,-0.05648l0.00785,0z"/>
    <path id="svg_11" fill="#999A1C" d="m88.1546,73.08442c0.72074,-1.05348 1.3563,-2.09611 1.96831,-3.23322c0.15805,-0.28889 0.31273,-0.57779 0.46181,-0.86668l0.2948,-0.57996l0.28135,-0.60059l0.31049,-0.69834a30.8025,29.84509 0 0 0 2.40098,-12.57121a17.84259,17.288 0 0 0 -5.04744,5.09799a25.80775,25.00558 0 0 0 -1.04581,1.78875l-0.14348,0.2574l-0.03699,0.11186c-0.13675,0.31496 -0.2735,0.62992 -0.40353,0.95031a28.19415,27.31782 0 0 0 -1.16014,3.73607a23.54464,22.81281 0 0 0 -0.55597,3.54166a43.56178,42.20778 0 0 0 -0.18719,3.98803c0,1.04045 0,1.99076 0.06501,2.90523c0.95837,-1.23594 1.9246,-2.50664 2.79778,-3.8273zm4.75825,-13.75177c0.11321,-0.12273 0.19728,-0.26826 0.24548,-0.42682c0.05268,0.24219 0.09864,0.4757 0.13675,0.69943c-0.11209,-0.10861 -0.24099,-0.20092 -0.38111,-0.2726l-0.00112,0z"/>
    <path id="svg_12" fill="#999A1C" d="m88.10416,76.19926c0.72523,-0.34863 1.44597,-0.72549 2.16335,-1.13059l0.54028,-0.32148l0.35309,-0.21721l0.34636,-0.23676l0.40353,-0.28672a19.37823,18.77591 0 0 0 5.48011,-6.02767a11.22812,10.87912 0 0 0 -4.41301,1.18055c-0.3968,0.19549 -0.77903,0.41271 -1.16126,0.63535l-0.16477,0.09775l-0.05829,0.04887l-0.53355,0.38447c-0.6647,0.50719 -1.29128,1.06109 -1.87416,1.65516c-0.53916,0.54086 -1.03348,1.12299 -1.4796,1.73879a46.93122,45.47249 0 0 0 -1.44149,2.09611c-0.34524,0.55824 -0.65573,1.08172 -0.93035,1.59217c0.93035,-0.37686 1.8607,-0.76893 2.76864,-1.20879l0.00112,0zm7.15138,-5.93644a0.72074,0.69834 0 0 0 0.27462,-0.15314a7.36323,7.13437 0 0 1 -0.17262,0.43986a1.00882,0.97746 0 0 0 -0.10088,-0.27912l0,-0.0076l-0.00112,0zm-9.50192,1.85826c0,-1.25006 -0.04372,-2.50121 -0.1446,-3.75127c-0.02914,-0.32582 -0.06053,-0.64947 -0.09416,-0.97094l-0.07174,-0.63535c0,-0.18789 -0.10088,-0.69834 -0.10088,-0.64947c-0.04372,-0.25631 -0.08967,-0.51045 -0.13675,-0.76025a30.80475,29.84726 0 0 0 -4.98915,-11.82509a17.83698,17.28257 0 0 0 -1.39217,6.9215c0,0.69834 0.05717,1.39668 0.11545,2.05266l0,0.41271a28.19415,27.31782 0 0 0 1.29801,4.75697a23.54688,22.81499 0 0 0 1.5065,3.26797a46.32369,44.88384 0 0 0 2.06919,3.45695c0.57727,0.87971 1.12539,1.66168 1.68136,2.40998c0.17262,-1.55742 0.25108,-3.12244 0.25781,-4.68637l0.00112,0zm-3.66985,-14.06021a1.16014,1.12408 0 0 0 0,-0.48873c0.1771,0.17703 0.35309,0.3584 0.52683,0.54521a1.60065,1.5509 0 0 0 -0.53467,-0.05648l0.00785,0z"/>
    <path id="svg_13" fill="#999A1C" d="m88.1546,73.08442c0.72074,-1.05348 1.3563,-2.09611 1.96831,-3.23322c0.15805,-0.28889 0.31273,-0.57779 0.46181,-0.86668l0.2948,-0.57996l0.28135,-0.60059l0.31049,-0.69834a30.8025,29.84509 0 0 0 2.40098,-12.57121a17.84259,17.288 0 0 0 -5.04744,5.09799a25.80775,25.00558 0 0 0 -1.04581,1.78875l-0.14348,0.2574l-0.03699,0.11186c-0.13675,0.31496 -0.2735,0.62992 -0.40353,0.95031a28.19415,27.31782 0 0 0 -1.16014,3.73607a23.54464,22.81281 0 0 0 -0.55597,3.54166a43.56178,42.20778 0 0 0 -0.18719,3.98803c0,1.04045 0,1.99076 0.06501,2.90523c0.95837,-1.23594 1.9246,-2.50664 2.79778,-3.8273zm4.75825,-13.75177c0.11321,-0.12273 0.19728,-0.26826 0.24548,-0.42682c0.05268,0.24219 0.09864,0.4757 0.13675,0.69943c-0.11209,-0.10861 -0.24099,-0.20092 -0.38111,-0.2726l-0.00112,0z"/>
    <path id="svg_14" fill="#999A1C" d="m88.10416,76.19926c0.72523,-0.34863 1.44597,-0.72549 2.16335,-1.13059l0.54028,-0.32148l0.35309,-0.21721l0.34636,-0.23676l0.40353,-0.28672a19.37823,18.77591 0 0 0 5.48011,-6.02767a11.22812,10.87912 0 0 0 -4.41301,1.18055c-0.3968,0.19549 -0.77903,0.41271 -1.16126,0.63535l-0.16477,0.09775l-0.05829,0.04887l-0.53355,0.38447c-0.6647,0.50719 -1.29128,1.06109 -1.87416,1.65516c-0.53916,0.54086 -1.03348,1.12299 -1.4796,1.73879a46.93122,45.47249 0 0 0 -1.44149,2.09611c-0.34524,0.55824 -0.65573,1.08172 -0.93035,1.59217c0.93035,-0.37686 1.8607,-0.76893 2.76864,-1.20879l0.00112,0zm7.15138,-5.93644a0.72074,0.69834 0 0 0 0.27462,-0.15314a7.36323,7.13437 0 0 1 -0.17262,0.43986a1.00882,0.97746 0 0 0 -0.10088,-0.27912l0,-0.0076l-0.00112,0z"/>
    <path id="svg_15" fill="#A1482D" d="m149.13863,91.46066l-13.50468,6.28615a3.10715,3.01057 0 0 0 -0.21633,5.31521l32.00636,18.08951a3.10827,3.01166 0 0 0 4.1821,-0.97094l7.77909,-11.71974"/>
    <path id="svg_16" fill="#F47B56" d="m222.59049,61.14096l-107.68546,-60.10723a4.86025,4.70918 0 0 0 -7.28253,4.07926l0,62.53024c0,1.39777 0.76894,2.6891 2.01763,3.38853l114.80322,64.19301a2.60387,2.52293 0 0 0 3.90748,-2.18625l0,-62.27285a11.46127,11.10502 0 0 0 -5.76146,-9.62472l0.00112,0z"/>
    <path id="svg_17" fill="#FFF" d="m114.91176,5.76246l104.43371,58.2001a7.32288,7.09527 0 0 1 3.66985,6.14713l0,46.87135a2.64534,2.56312 0 0 1 -3.95792,2.221l-106.50403,-59.17104a2.60947,2.52836 0 0 1 -1.31146,-2.19385l0,-50.01442a2.4503,2.37414 0 0 1 3.66985,-2.06027z"/>
    <ellipse id="svg_18" ry="2.315" rx="2.026" cy="84.467" cx="169.964" transform="matrix(1.10068, -0.20537, 0.211958, 1.06647, -46.6175, 36.5256)" fill="#AB643C"/>
    <path id="svg_19" d="m142.98149,69.35487l48.53188,28.24532l23.97506,-13.50089l-42.83655,-24.15193" opacity="0.32" fill="url(#d)"/>
    <path id="svg_20" fill="#E2AC00" d="m202.9567,63.73231l-52.46962,-30.9898a1.81699,1.76051 0 0 0 -2.72492,1.58566l0,17.65617a1.91002,1.85066 0 0 0 0.91578,1.59326l52.46177,30.33382a1.81026,1.754 0 0 0 2.70363,-1.53135l0.2735,-16.4615a2.55118,2.47189 0 0 0 -1.16014,-2.18625z"/>
    <path id="svg_21" fill="#FFF" d="m190.40367,72.81834c1.882,2.55008 5.19092,3.26254 7.38341,1.59978c2.19137,-1.66168 2.44358,-5.07736 0.56157,-7.61984c-1.882,-2.54139 -5.19092,-3.26146 -7.38341,-1.59869c-2.19137,1.66168 -2.44358,5.07084 -0.56157,7.61984l0,-0.00109z"/>
    <path id="svg_22" fill="#F2F2F2" d="m185.25535,60.58272l-21.40034,-12.48107a0.8149,0.78957 0 0 0 -0.82162,1.35432l21.40034,12.48107a0.8149,0.78957 0 0 0 0.82162,-1.35432zm-0.87991,5.07084l-29.49665,-17.20328a0.8149,0.78957 0 0 0 -0.78688,1.35541l29.4619,17.2098a0.8149,0.78957 0 0 0 0.82162,-1.35541l0,-0.00652z"/>
    <path id="svg_23" fill="#F47B56" d="m192.48744,67.1545l-52.44048,-30.9822a1.81699,1.76051 0 0 0 -2.72604,1.58566l0,17.64857c-0.00785,0.65164 0.33627,1.25875 0.90793,1.59978l52.4629,30.33382a1.81026,1.754 0 0 0 2.71147,-1.56393l0.2735,-16.46367a2.55118,2.47189 0 0 0 -1.18928,-2.15801z"/>
    <path id="svg_24" fill="#FFF" d="m179.93441,76.24162c1.882,2.549 5.19092,3.26146 7.38341,1.59978c2.19137,-1.66168 2.44358,-5.07844 0.56157,-7.62092c-1.882,-2.54139 -5.19092,-3.26146 -7.38341,-1.59869c-2.19137,1.66168 -2.44358,5.07084 -0.56157,7.61984z"/>
    <path id="svg_25" fill="#F2F2F2" d="m174.78608,64.00491l-21.41603,-12.48107a0.8149,0.78957 0 0 0 -0.82162,1.35541l21.40034,12.48107a0.8149,0.78957 0 0 0 0.82162,-1.35541l0.01457,0l0.00112,0zm-0.88664,5.1056l-29.49104,-17.23044a0.8149,0.78957 0 0 0 -0.82162,1.35541l29.49777,17.2022a0.8149,0.78957 0 0 0 0.82162,-1.35541l-0.00673,0.02824z"/>
    <path id="svg_26" fill="#68E1FD" d="m179.328,69.23649l-52.45393,-30.98329a1.81699,1.76051 0 0 0 -2.72604,1.58566l0,17.64966a1.91002,1.85066 0 0 0 0.91578,1.59217l52.46177,30.33382a1.81026,1.754 0 0 0 2.71147,-1.56393l0.2735,-16.46367c0.02354,-0.86885 -0.42594,-1.68449 -1.18256,-2.15041z"/>
    <path id="svg_27" fill="#68E1FD" d="m179.328,69.23649l-52.45393,-30.98329a1.81699,1.76051 0 0 0 -2.72604,1.58566l0,17.64966a1.91002,1.85066 0 0 0 0.91578,1.59217l52.46177,30.33382a1.81026,1.754 0 0 0 2.71147,-1.56393l0.2735,-16.46367c0.02354,-0.86885 -0.42594,-1.68449 -1.18256,-2.15041z"/>
    <path id="svg_28" fill="#FFF" d="m166.76824,78.32252c1.882,2.55008 5.19092,3.26254 7.38341,1.59978c2.19137,-1.66168 2.44358,-5.07736 0.56157,-7.61984c-1.88088,-2.54139 -5.19092,-3.26146 -7.38229,-1.59978c-2.19249,1.66168 -2.4234,5.07193 -0.56269,7.61984z"/>
    <path id="svg_29" fill="#F2F2F2" d="m161.61992,66.08581l-21.40707,-12.47998a0.8149,0.78957 0 0 0 -0.82275,1.35541l21.40034,12.48107a0.8149,0.78957 0 0 0 0.82275,-1.35541l0.00673,0l0,-0.00109zm-0.88664,5.07844l-29.49777,-17.20328a0.8149,0.78957 0 0 0 -0.82162,1.35541l29.49665,17.20328a0.8149,0.78957 0 0 0 0.82275,-1.35541z"/>
    <path id="svg_30" fill="#FF8F6F" d="m110.48418,67.50422a25.51743,24.72429 0 0 0 -7.43385,10.5533c-2.60947,6.9834 3.91533,18.39687 3.91533,18.39687l10.15205,-7.78709"/>
    <path id="svg_31" fill="#003B94" d="m109.38905,159.8448l-2.75519,-1.47379l0.72186,-3.81318s4.10252,0.37686 4.46233,1.78766"/>
    <path id="svg_32" fill="#F47B56" d="m110.39787,159.78832c0.61986,-0.36926 1.26887,-0.69834 1.91115,-1.02633c1.59281,-0.84496 3.89291,-1.71816 4.8737,-3.30381a1.90218,1.84305 0 0 0 -0.13003,-2.09502c-1.44149,-1.68992 -4.6002,1.08932 -6.2143,-0.78197c-0.31722,-0.37035 -0.46966,-6.24488 -0.46966,-6.24488l-6.14257,1.60738s-1.03796,11.80336 -0.92251,12.52994c0.11433,0.72549 2.22724,1.39668 2.22724,1.39668a5.44424,5.27502 0 0 0 1.77439,-0.69834c0.64116,-0.45398 0.05717,-5.99291 0.87879,-5.21746c0.82275,0.77545 1.18256,3.80666 1.18256,3.80666c0.34188,0.04996 0.68824,0.05865 1.03123,0.02715z"/>
    <path id="svg_33" fill="#003B94" d="m121.11934,165.55099l-2.75407,-1.45316l0.72074,-3.81318s4.10252,0.37686 4.46345,1.78766"/>
    <path id="svg_34" fill="#F47B56" d="m122.15842,165.49451c0.61986,-0.36926 1.26887,-0.69834 1.91002,-1.02633c1.59393,-0.84496 3.89403,-1.71816 4.87482,-3.30381a1.90218,1.84305 0 0 0 -0.13003,-2.09502c-1.44261,-1.68992 -4.6002,1.08932 -6.21543,-0.78197c-0.31722,-0.37035 -0.46854,-6.24488 -0.46854,-6.24488l-6.14257,1.60738s-1.04581,11.84463 -0.93035,12.54406c0.11433,0.69834 2.22724,1.39668 2.22724,1.39668a5.44424,5.27502 0 0 0 1.77439,-0.69834c0.64116,-0.45398 0.05717,-5.99291 0.87879,-5.21746c0.82275,0.77545 1.18256,3.80666 1.18256,3.80666c0.34412,0.04561 0.69384,0.04996 1.03908,0.01303z"/>
    <path id="svg_35" fill="#3E2928" d="m101.10443,127.17919l-1.81026,23.44599s2.88409,3.85553 12.55415,1.71164l0.09304,-15.80552m0.33179,-4.70701c-0.20961,2.01791 0,24.28443 0,24.28443s2.67448,4.84603 14.31958,0l-0.16589,-18.92144"/>
    <path id="svg_36" fill="#3E2928" d="m100.20322,134.92393c0.79248,0.53217 1.0671,-2.19928 1.89545,-1.73119a47.18343,45.71686 0 0 0 9.54676,4.07818l0.07174,0a0.65685,0.63643 0 0 1 0.88776,0.31496c2.05574,0.59408 4.14735,1.06 6.26587,1.39668c2.71708,0.41922 4.96674,-1.53027 7.75667,-1.66168c0,-10.35129 0.05156,-39.81192 -4.4982,-46.09807l-13.46208,-4.38553c-0.06501,1.07521 -6.53264,8.33881 -6.37347,17.19568c0.17934,9.98095 -1.16126,19.39496 -1.39217,22.5174c-0.03587,0.53109 -0.6703,7.80881 -0.69832,8.37357z"/>
    <path id="svg_37" fill="#FF8F6F" d="m123.36899,79.3217l-1.23972,11.87396s-10.04332,0.39098 -14.37002,-2.50121l0,-10.07109"/>
    <path id="svg_38" fill="#FFB5A9" d="m136.13836,71.50637l-1.02339,1.35432a33.62943,32.58415 0 0 0 1.44149,-3.38744c0.28919,-0.78848 -1.01666,-1.10344 -1.30473,-0.31387l-0.15132,0.4051c0.12554,-0.41922 0.24324,-0.84061 0.35309,-1.26418a0.67254,0.65164 0 1 0 -1.30473,-0.31496a34.93865,33.85267 0 0 1 -1.01666,3.24191a23.8753,23.1332 0 0 0 0.47639,-2.86396c0.08631,-0.83084 -1.26214,-0.79609 -1.34172,0c-0.11209,1.09693 -0.31385,2.18299 -0.60529,3.24734a6.24345,6.04939 0 0 0 -0.10873,-1.11756a0.67703,0.65598 0 0 0 -0.28023,-0.46701a5.21558,5.05346 0 0 0 -0.13003,-0.43443a0.67815,0.65707 0 0 0 -1.32043,0.19549l-0.08631,4.88947c-0.24436,0.50719 -0.56157,0.97746 -0.9438,1.39777c0.64788,0.43443 1.27447,0.90143 1.87416,1.39668c0.53579,0.43768 1.04581,0.90469 1.52892,1.39668c0.43267,-0.52131 0.84853,-1.0524 1.24757,-1.59217a0.72074,0.69834 0 0 0 0.1289,-0.1401a143.56119,139.09897 0 0 1 3.72141,-5.08496c0.53355,-0.57236 -0.64228,-1.20771 -1.15453,-0.54412z"/>
    <path id="svg_39" fill="#FF8F6F" d="m116.99552,68.49579s4.7448,1.23594 6.66939,4.19113a54.22944,52.54387 0 0 1 3.18001,6.34806l3.50395,-5.27285s4.25384,1.26418 5.9408,3.28969c0,0 -5.04632,10.68689 -9.44476,11.60136c-4.39844,0.91447 -9.07037,-6.27203 -9.07037,-6.27203s-0.96622,3.00297 -0.77903,-0.20309"/>
    <path id="svg_40" fill="#007F68" d="m120.00964,79.91578a9.60841,9.30976 0 0 1 -3.00739,-4.14877c-0.56942,-1.87889 0.1446,-3.52754 0.80705,-5.27394a17.53434,16.98933 0 0 0 1.24084,-5.42707c0.05829,-1.82893 -0.15805,-3.66004 -0.28807,-5.48246a0.54812,0.53109 0 0 1 0,-0.23676c-0.63443,-2.06135 -1.93244,-3.80666 -4.49259,-4.01627c-6.62568,-0.54521 -7.00118,6.56527 -6.94962,9.45638c0.04932,2.89219 0.36766,4.84711 -1.83156,6.0559c-2.19922,1.20771 -3.78642,4.37902 -1.68808,6.94213c2.09834,2.56312 0.21633,1.62801 -1.18256,3.90441c-1.39777,2.27748 -1.03796,5.11971 1.83156,6.14713c2.86952,1.02633 16.2083,-0.90143 17.43458,-2.09611a2.54446,2.46537 0 0 0 0.62771,-1.74639a6.99221,6.77488 0 0 0 -2.50186,-4.07818z"/>
    <path id="svg_41" fill="#F47B56" d="m126.52771,21.27365a10.55894,10.23074 0 0 1 1.87416,5.30869a3.60371,3.4917 0 0 1 -0.61314,2.47949a1.47848,1.43252 0 0 1 -1.78785,0.30084a2.76191,2.67607 0 0 1 -0.96622,-0.62992a3.36608,3.26146 0 0 1 -0.61986,-0.76025l-0.17262,-0.32799c-0.04708,0.0858 -0.10537,0.16508 -0.17374,0.23676c-0.1715,0.13033 -0.3755,0.21395 -0.59072,0.24436c-0.36093,0.06516 -0.73307,0.02172 -1.0671,-0.1249a4.00164,3.87726 0 0 1 -1.88985,-1.64213a5.44088,5.27176 0 0 1 -0.8362,-2.64674c-0.10649,-0.76025 0.13899,-1.52701 0.6703,-2.09611a1.54349,1.49551 0 0 1 1.7531,-0.265c0.28919,0.11186 0.55485,0.2726 0.78463,0.4757c0.19728,0.16182 0.37214,0.34754 0.5201,0.55172l0.13003,0.22373l0,-0.62232l1.44149,0.54521l0.1446,3.92504c0.01009,0.28129 0.09976,0.55389 0.25893,0.78957c0.13563,0.22699 0.343,0.4051 0.59184,0.51045c0.6972,0.265 1.0189,-0.31713 0.96622,-1.74748a7.79814,7.55576 0 0 0 -1.39217,-3.94568a6.82744,6.61523 0 0 0 -3.19458,-2.63914a2.69017,2.60656 0 0 0 -2.99842,0.36926a4.07225,3.94568 0 0 0 -1.16126,3.2267a8.59063,8.32361 0 0 0 1.44261,4.19113a6.64697,6.44037 0 0 0 3.07801,2.79336c0.45733,0.18463 0.94717,0.27695 1.44261,0.27152c0.3217,0.02172 0.64452,-0.03584 0.93708,-0.16725l0.28807,-0.15314l0.87319,1.57154l-0.1446,0.09775c-0.13675,0.07385 -0.27911,0.1401 -0.42594,0.19549c-0.22979,0.09666 -0.4719,0.16291 -0.72074,0.19549a3.60596,3.49387 0 0 1 -0.95837,0a4.83111,4.68094 0 0 1 -1.21843,-0.30084a7.93153,7.685 0 0 1 -2.88409,-2.05266a12.56424,12.17371 0 0 1 -2.23509,-3.38092a10.68112,10.34912 0 0 1 -0.92363,-3.75019a6.21206,6.01898 0 0 1 0.66358,-3.14959a3.662,3.54818 0 0 1 2.0479,-1.74639a3.94559,3.82295 0 0 1 2.84038,0.13902a9.16341,8.87859 0 0 1 4.22582,3.50691l0,-0.00109zm-3.18001,4.96658c0.23651,-0.29324 0.343,-0.66467 0.29592,-1.03393a2.75295,2.66738 0 0 0 -0.38223,-1.29242a1.83156,1.77463 0 0 0 -0.87319,-0.76785a0.78576,0.76133 0 0 0 -0.88552,0.11186a1.31931,1.2783 0 0 0 -0.31834,1.0133c0.01681,0.46049 0.15805,0.90795 0.41137,1.29893c0.20737,0.35406 0.52907,0.63426 0.91578,0.79609c0.27686,0.13793 0.61426,0.08689 0.8362,-0.12598m88.31172,70.66162a10.52307,10.19599 0 0 1 1.87416,5.3076a3.60371,3.4917 0 0 1 -0.61201,2.47949a1.4852,1.43904 0 0 1 -1.78897,0.30084a2.84038,2.75209 0 0 1 -0.96622,-0.62992a3.48938,3.38092 0 0 1 -0.61986,-0.76025l-0.17262,-0.32799a1.39889,1.35541 0 0 1 -0.17374,0.23676c-0.17038,0.13033 -0.37438,0.21613 -0.59072,0.24436c-0.35757,0.06951 -0.72859,0.02824 -1.06038,-0.11838a4.00164,3.87726 0 0 1 -1.88873,-1.64865a5.41958,5.25113 0 0 1 -0.84404,-2.65326c-0.11097,-0.76025 0.13451,-1.52918 0.67142,-2.09611a1.53564,1.48791 0 0 1 1.74413,-0.265c0.28919,0.11078 0.55597,0.27152 0.78576,0.47461c0.19728,0.16508 0.37102,0.35297 0.5201,0.55932l0.13675,0.22264l0,-0.62123l1.44149,0.5376l0.1446,3.92504c0.01233,0.28129 0.102,0.55389 0.25893,0.78957c0.13563,0.22807 0.343,0.40619 0.59184,0.51045c0.72074,0.265 1.01666,-0.31496 0.97295,-1.74639a7.83513,7.5916 0 0 0 -1.39104,-3.95328a6.84201,6.62935 0 0 0 -3.18674,-2.63262a2.6969,2.61307 0 0 0 -2.99955,0.36275a4.07225,3.94568 0 0 0 -1.13212,3.24734a8.5626,8.29646 0 0 0 1.44149,4.19113a6.67612,6.46861 0 0 0 3.11612,2.70322c0.45621,0.18463 0.94604,0.27912 1.44149,0.27912c0.3217,0.01846 0.6434,-0.0391 0.93708,-0.16834l0.28807,-0.15314l0.87319,1.57154l-0.14572,0.09775c-0.13563,0.07494 -0.27798,0.1401 -0.42482,0.19549a3.17216,3.07357 0 0 1 -0.72074,0.19549a3.67769,3.56338 0 0 1 -0.96622,0a4.81766,4.66791 0 0 1 -1.21058,-0.30736a7.93153,7.685 0 0 1 -2.88409,-2.04615a12.59226,12.20086 0 0 1 -2.23621,-3.38853a10.65982,10.32849 0 0 1 -0.92251,-3.7491a6.17619,5.98422 0 0 1 0.66358,-3.14307a3.69114,3.57641 0 0 1 2.0479,-1.754a3.99491,3.87074 0 0 1 2.8471,0.14119a9.17798,8.89271 0 0 1 4.13951,3.58945zm-3.18001,4.96549c0.23875,-0.29215 0.34748,-0.66359 0.30264,-1.03393a2.73165,2.64674 0 0 0 -0.38895,-1.29242a1.80242,1.74639 0 0 0 -0.86534,-0.76785a0.78576,0.76133 0 0 0 -0.88664,0.10535a1.30473,1.26418 0 0 0 -0.32506,1.01221c0.01681,0.45832 0.15917,0.90469 0.41137,1.29242c0.20737,0.35623 0.52907,0.63861 0.91578,0.80369a0.72074,0.69834 0 0 0 0.8362,-0.11947"/>
    <path id="svg_42" opacity="0.25" fill="url(#e)" d="m67.97269,126.68286l-24.40661,-13.45201l-24.39989,13.48025s13.57754,8.21283 25.72592,15.11369c7.7152,-5.28045 14.57178,-11.32115 23.08058,-15.14193z"/>
   </g>
   <g id="svg_43">
    <use transform="matrix(1.12091, 0, 0, 1.08607, -32.1511, -0.0349643)" id="svg_44" x="50" y="68" xlink:href="#g" filter="url(#f)" fill="#000"/>
    <use transform="matrix(1.12091, 0, 0, 1.08607, -32.1511, -0.0349643)" id="svg_45" x="50" y="68" xlink:href="#g" fill="#FF9271"/>
   </g>
   <path id="svg_46" d="m47.41527,101.94228l0,29.25318l26.55875,-15.21904l0,-29.25318l-26.55875,15.21904z" fill-rule="nonzero" fill="#DF5C34"/>
   <path id="svg_47" d="m23.89417,88.88994l27.2907,-15.07242l22.78802,12.90572l-26.55763,15.21904l-23.5211,-13.05234z" fill-rule="nonzero" fill="#F47B56"/>
   <path id="svg_48" fill-rule="nonzero" fill="#3E2928" d="m48.03961,80.53158a14.53927,14.08736 0 0 1 7.96292,1.69969c1.39329,0.79391 2.15438,1.62258 2.26199,2.48709c0.10761,0.86342 -0.35196,1.61498 -1.43588,2.24816a5.10797,4.9492 0 0 1 -1.67351,0.64078c-0.48647,0.11186 -0.9864,0.16182 -1.48632,0.14662l-0.54588,-0.04127c0.05156,0.11838 0.08519,0.24219 0.10088,0.36926a1.75534,1.70078 0 0 1 -0.28695,0.84279c-0.28471,0.46701 -0.69048,0.85365 -1.17695,1.12082a7.07964,6.85959 0 0 1 -3.75504,0.96117a7.42376,7.19301 0 0 1 -3.89963,-0.95357c-1.11979,-0.64078 -1.69369,-1.39342 -1.7374,-2.25684a2.51643,2.43822 0 0 1 1.43588,-2.17973a4.75713,4.60926 0 0 1 1.32155,-0.55064a5.14272,4.98287 0 0 1 1.14108,-0.18789l0.39568,0l-0.7185,-0.41814l2.01763,-1.21857l4.67418,2.66738a2.45254,2.37631 0 0 0 2.32588,0c0.99088,-0.59842 0.63667,-1.38582 -1.06262,-2.36111a10.79433,10.45881 0 0 0 -5.91614,-1.27504a12.14502,11.76752 0 0 0 -6.17507,1.72033c-1.69369,1.02633 -2.53325,2.25033 -2.5198,3.6709c0,1.39342 0.89672,2.63262 2.64198,3.62855c1.90554,1.03176 4.06777,1.53135 6.24681,1.4423a11.72804,11.36351 0 0 0 6.17507,-1.58783a6.92384,6.70863 0 0 0 1.71499,-1.39342c0.32843,-0.33668 0.5739,-0.74178 0.7185,-1.18381l0.10088,-0.43877l2.66327,0.14553c0.00448,0.07928 0.00448,0.15857 0,0.23785c-0.0482,0.21287 -0.11321,0.42248 -0.19392,0.62666c-0.11545,0.32582 -0.26902,0.64078 -0.45957,0.93293c-0.2735,0.39533 -0.59072,0.76025 -0.94717,1.08607c-0.47078,0.43986 -0.9864,0.82758 -1.54349,1.15666a14.34872,13.90273 0 0 1 -5.22679,1.82459a19.7145,19.10173 0 0 1 -6.09661,0.10426a13.95304,13.51935 0 0 1 -5.23463,-1.65734a6.79718,6.5859 0 0 1 -2.97152,-3.02252a4.59123,4.44853 0 0 1 0,-3.57967a7.11327,6.89217 0 0 1 2.95135,-3.12787a16.23409,15.72949 0 0 1 8.21288,-2.32635zm2.61395,7.2017a1.53788,1.49008 0 0 0 -0.89672,-1.08607a3.68778,3.57316 0 0 0 -1.86743,-0.49416a3.14975,3.05185 0 0 0 -1.7374,0.43117c-0.43043,0.20309 -0.70729,0.62232 -0.71738,1.08607c0.06501,0.4833 0.38671,0.89818 0.84628,1.09367a3.66536,3.55144 0 0 0 1.90218,0.46701a3.41428,3.30816 0 0 0 1.82371,-0.45941c0.4181,-0.18463 0.68375,-0.59299 0.67591,-1.03828"/>
  </g>
 </g>
</svg>